<?xml version="1.0" encoding="UTF-8" standalone="no"?>
<!-- Created with Inkscape (http://www.inkscape.org/) -->

<svg
   xmlns:dc="http://purl.org/dc/elements/1.1/"
   xmlns:cc="http://creativecommons.org/ns#"
   xmlns:rdf="http://www.w3.org/1999/02/22-rdf-syntax-ns#"
   xmlns:svg="http://www.w3.org/2000/svg"
   xmlns="http://www.w3.org/2000/svg"
   xmlns:sodipodi="http://sodipodi.sourceforge.net/DTD/sodipodi-0.dtd"
   xmlns:inkscape="http://www.inkscape.org/namespaces/inkscape"
   width="210mm"
   height="210mm"
   viewBox="0 0 210 297"
   version="1.1"
   id="svg18"
   inkscape:version="0.92.5 (2060ec1f9f, 2020-04-08)"
   sodipodi:docname="appicon.svg"
   inkscape:export-filename="/home/sam/programs/TKEditor/icons/application/appicon256x256.png"
   inkscape:export-xdpi="30.963808"
   inkscape:export-ydpi="30.963808">
  <defs
     id="defs12" />
  <sodipodi:namedview
     id="base"
     pagecolor="#ffffff"
     bordercolor="#666666"
     borderopacity="1.0"
     inkscape:pageopacity="0.0"
     inkscape:pageshadow="2"
     inkscape:zoom="0.45254834"
     inkscape:cx="413.56119"
     inkscape:cy="259.6034"
     inkscape:document-units="mm"
     inkscape:current-layer="layer2"
     showgrid="false"
     inkscape:window-width="1366"
     inkscape:window-height="704"
     inkscape:window-x="0"
     inkscape:window-y="27"
     inkscape:window-maximized="1" />
  <metadata
     id="metadata15">
    <rdf:RDF>
      <cc:Work
         rdf:about="">
        <dc:format>image/svg+xml</dc:format>
        <dc:type
           rdf:resource="http://purl.org/dc/dcmitype/StillImage" />
        <dc:title />
      </cc:Work>
    </rdf:RDF>
  </metadata>
  <g
     inkscape:label="Layer 1"
     inkscape:groupmode="layer"
     id="layer1"
     style="display:inline" />
  <g
     inkscape:groupmode="layer"
     id="layer2"
     inkscape:label="SVG"
     style="display:inline">
    <path
       style="fill:none;stroke:#000000;stroke-width:0.44160375px;stroke-linecap:butt;stroke-linejoin:miter;stroke-opacity:1"
       d="m 3.3221099,142.3452 117.8185101,107.4684 114.71348,32.43028 0.69,-7.07256 -100.22335,-27.94523 -11.0401,-4.48505 -108.330921,-103.67338 16.732639,-15.18012 112.815962,106.6059 -6.03755,17.76767"
       id="path999"
       inkscape:connector-curvature="0" />
    <path
       style="fill:#ffd700;stroke:#ffd42a;stroke-width:0.34500292"
       d="m 137.07774,247.01332 c -1.04363,-0.35296 -4.09839,-1.5507 -6.78833,-2.66163 l -4.89083,-2.01987 -53.85472,-51.55156 C 41.923763,162.4269 17.731909,139.12366 17.784182,138.99529 c 0.05228,-0.12836 3.641906,-3.45702 7.976968,-7.39702 l 7.881924,-7.16362 1.433155,1.36835 c 0.788231,0.7526 25.497106,24.07864 54.908605,51.83564 29.411496,27.75699 54.063176,51.03663 54.781496,51.73253 l 1.30604,1.26524 -2.89786,8.43523 c -2.33998,6.81136 -3.02311,8.4495 -3.54855,8.50934 -0.35789,0.0407 -1.50458,-0.21468 -2.54822,-0.56766 z"
       id="path1007"
       inkscape:connector-curvature="0" />
    <path
       style="fill:none;stroke:#000000;stroke-width:0.44160375px;stroke-linecap:butt;stroke-linejoin:miter;stroke-opacity:1"
       d="M 3.3221099,142.3452 9.1871586,132.85761 83.707799,53.161933 94.057884,54.541946 213.0839,168.73793 l 27.70293,105.85891 -0.60987,5.30598 -4.32286,2.34106"
       id="path1019"
       inkscape:connector-curvature="0" />
    <path
       style="fill:none;stroke:#000000;stroke-width:0.44160375px;stroke-linecap:butt;stroke-linejoin:miter;stroke-opacity:1"
       d="m 154.36616,252.21406 1.28077,-12.56364 8.96406,-6.56946 21.39017,-6.72756 9.1663,-26.46746 10.12407,0.60988 14.39329,39.52054 -9.39221,27.56679"
       id="path1021"
       inkscape:connector-curvature="0" />
    <path
       style="fill:none;stroke:#000000;stroke-width:0.44160375px;stroke-linecap:butt;stroke-linejoin:miter;stroke-opacity:1"
       d="m 46.447477,115.60746 105.296173,104.64863 20.00423,-0.73185 7.07467,-21.7119 L 68.067462,93.156104 Z"
       id="path1023"
       inkscape:connector-curvature="0" />
    <path
       style="fill:none;stroke:#000000;stroke-width:0.44160375px;stroke-linecap:butt;stroke-linejoin:miter;stroke-opacity:1"
       d="M 197.36304,187.81022 184.67744,186.59046 75.386083,81.690276 90.267269,70.224436 197.36304,171.70926 Z"
       id="path1025"
       inkscape:connector-curvature="0" />
    <path
       style="fill:none;stroke:#000000;stroke-width:0.44160375px;stroke-linecap:butt;stroke-linejoin:miter;stroke-opacity:1"
       d="m 3.3221099,142.3452 -35.2757539,-44.06607 -3.903262,-11.221883 6.586755,-8.050469 62.696155,-65.623606 8.538391,-1.951632 8.294431,3.415353 43.799058,39.695053"
       id="path1027"
       inkscape:connector-curvature="0" />
    <path
       style="fill:#ffd700;stroke:#ffd42a;stroke-width:0.34500292"
       d="m 138.52324,247.2831 c -0.3795,-0.0889 -3.44398,-1.2475 -6.80995,-2.57466 l -6.11995,-2.41302 -29.415355,-28.1605 C 79.999535,198.64666 57.152191,176.72964 45.4061,165.43043 33.660011,154.13122 22.658627,143.56679 20.95859,141.9539 l -3.090984,-2.93253 7.853459,-7.1545 7.853464,-7.1545 1.586422,1.45224 c 0.872534,0.79872 26.147676,24.63739 56.166988,52.97479 l 54.580571,51.52256 -2.37755,6.86719 c -2.60736,7.53099 -3.61592,10.01658 -4.03956,9.95563 -0.15298,-0.022 -0.58866,-0.11275 -0.96816,-0.20168 z"
       id="path1053"
       inkscape:connector-curvature="0" />
    <path
       style="fill:#ffd700;stroke:#ffd42a;stroke-width:0.34500292"
       d="m 99.473271,167.77998 -52.505076,-52.17574 7.860913,-8.12911 c 4.3235,-4.471 9.08775,-9.403709 10.587225,-10.961588 l 2.726301,-2.832481 54.165466,51.227729 c 29.79101,28.17527 54.58767,51.65081 55.1037,52.16791 l 0.93825,0.94018 -3.44024,10.56485 -3.44023,10.56484 -6.64059,0.22289 c -3.65232,0.12252 -8.03784,0.30463 -9.74561,0.40457 l -3.10503,0.18172 z"
       id="path1055"
       inkscape:connector-curvature="0" />
    <path
       style="fill:#ffd700;stroke:#ffd42a;stroke-width:0.34500292"
       d="m 190.68584,186.81604 -5.79791,-0.58867 -1.96467,-1.90918 C 181.84271,183.26815 157.39488,159.80426 128.59477,132.17624 99.794666,104.54821 76.270046,81.822502 76.31783,81.67467 76.40892,81.393002 89.960342,70.88329 90.23248,70.88329 c 0.08614,0 24.10554,22.69646 53.37644,50.43658 l 53.21981,50.43658 0.0926,7.86891 c 0.051,4.32791 -0.0267,7.84876 -0.17249,7.82413 -0.14582,-0.0246 -2.87417,-0.30968 -6.06301,-0.63345 z"
       id="path1057"
       inkscape:connector-curvature="0" />
    <path
       style="fill:#a0a0a0;stroke:none;stroke-width:0.48790783"
       d="m 181.65917,259.43871 -26.34703,-7.41472 0.046,-2.90049 c 0.0254,-1.59527 0.20374,-4.32763 0.39643,-6.0719 l 0.35036,-3.17139 4.42017,-3.22693 c 4.31837,-3.15262 4.66592,-3.30343 15.09095,-6.54861 l 10.67079,-3.32166 0.90792,-2.47769 c 0.49936,-1.36274 2.53194,-7.251 4.51685,-13.08502 l 3.6089,-10.60731 3.90328,0.001 c 2.14679,8.8e-4 4.34238,0.12314 4.87907,0.27138 0.78441,0.21656 2.34008,4.01953 7.93085,19.38767 3.82527,10.51505 6.95397,19.3735 6.95268,19.68546 -0.001,0.31195 -2.00809,6.51447 -4.45955,13.78338 -3.99343,11.84108 -4.56455,13.21073 -5.48896,13.16339 -0.56746,-0.0291 -12.88792,-3.38944 -27.37878,-7.46754 z"
       id="path1067"
       inkscape:connector-curvature="0" />
    <path
       style="fill:#000000;stroke:#000000;stroke-width:0.48790783;stroke-opacity:0.91176471"
       d="M 178.11646,265.47434 121.39179,249.40742 63.238153,196.34093 C 31.253649,167.15437 4.8116828,143.05489 4.4782285,142.78655 4.0157992,142.4144 4.5433639,141.21823 6.7017166,137.74506 9.108501,133.87213 14.957009,127.3953 45.828724,94.414469 65.792208,73.087102 82.510498,55.186567 82.980492,54.635508 c 0.827479,-0.970226 1.011635,-0.981907 5.820184,-0.36911 l 4.965664,0.632818 59.40706,57.009624 c 58.19923,55.85056 59.42177,57.06144 60.13039,59.55672 0.39783,1.4009 6.64146,25.27139 13.87476,53.04555 14.32266,54.9957 14.14492,54.12022 11.3258,55.78551 -0.75584,0.4465 -1.53536,0.81179 -1.73228,0.81179 -0.19692,0 -0.21348,-1.41091 -0.0368,-3.13537 0.28097,-2.74233 0.21296,-3.16772 -0.5425,-3.39331 -0.47506,-0.14187 -4.92558,-1.37773 -9.89003,-2.74637 -4.96448,-1.36863 -10.47254,-2.9141 -12.24015,-3.43437 l -3.21385,-0.94594 4.64977,-13.78642 4.64979,-13.78642 -7.23537,-19.82217 -7.23536,-19.82215 -2.495,-0.2998 c -1.37225,-0.16489 -3.83086,-0.3017 -5.46357,-0.30404 l -2.96857,-0.005 -4.53454,13.17244 -4.53454,13.17243 -7.86599,2.46886 c -4.32629,1.35788 -9.12399,2.87937 -10.66154,3.3811 -1.66638,0.54376 -4.64452,2.25576 -7.37305,4.23843 l -4.57747,3.3262 -0.60876,6.14662 -0.60876,6.14663 -6.41149,-1.79372 c -3.52631,-0.98654 -6.38916,-1.95107 -6.3619,-2.14339 0.0273,-0.19234 1.34462,-4.17658 2.92744,-8.85388 l 2.87788,-8.50418 -1.95164,-1.90891 C 134.8354,218.46916 33.844444,123.50908 33.546811,123.61622 c -0.814983,0.29335 -17.056335,15.22921 -16.931321,15.57037 0.07197,0.19641 24.537589,23.70115 54.368042,52.23277 l 54.237188,51.87566 5.78383,2.26341 c 3.55867,1.39262 24.83306,7.56812 55.29812,16.05184 27.23286,7.58364 49.5827,13.84236 49.6663,13.90825 0.28041,0.221 -0.51817,6.07762 -0.82491,6.04974 -0.1666,-0.0151 -25.82902,-7.25765 -57.02758,-16.09446 z m -6.09586,-45.57247 c 0.0657,-0.0563 1.74082,-5.08433 3.72235,-11.17334 l 3.60277,-11.07092 -52.01944,-49.14743 C 98.715581,121.47909 73.684492,97.826276 71.701643,95.948375 l -3.605196,-3.414368 -11.170901,11.464853 -11.170901,11.46485 52.827113,52.59189 52.827122,52.59189 10.24606,-0.3216 c 5.63534,-0.17686 10.29988,-0.36768 10.36566,-0.42402 z m 25.87276,-39.98075 -0.13323,-8.48481 -53.60081,-50.79599 C 114.67888,92.70252 90.417664,69.850677 90.2455,69.858449 89.787114,69.879117 75.321764,81.086248 75.147261,81.555896 74.99449,81.96703 184.06406,186.91371 184.71152,186.97857 c 0.19966,0.02 2.99771,0.32193 6.21789,0.67095 3.22019,0.349 6.13442,0.66198 6.47604,0.69548 0.48602,0.0477 0.59217,-1.7848 0.48791,-8.42388 z"
       id="path1075"
       inkscape:connector-curvature="0" />
    <path
       style="fill:#f08080;stroke:#000000;stroke-width:0.48790783;stroke-opacity:0.91176471"
       d="m -14.327957,119.56299 -17.362033,-21.772209 -1.808266,-5.294806 -1.808266,-5.294831 3.232749,-3.975427 C -30.295761,81.039231 -15.850828,65.660636 0.02608029,49.051066 15.90299,32.441492 29.990976,17.679393 31.332723,16.246398 33.68807,13.730877 33.91743,13.612109 37.978497,12.804989 l 4.206241,-0.835969 3.956359,1.682674 c 3.802486,1.617223 4.773728,2.422739 24.972186,20.711074 12.920936,11.699025 20.721952,19.089551 20.252848,19.187154 -0.419636,0.08731 -2.340172,-0.08597 -4.267874,-0.385052 L 83.593369,52.621066 82.03929,54.22589 C 81.184547,55.108541 64.344136,73.111236 44.616155,94.231872 15.113244,125.81748 8.2912649,133.37635 6.1787954,136.82107 4.766234,139.12449 3.4808,141.08247 3.322282,141.17215 c -0.1585181,0.0897 -8.1011233,-9.63444 -17.650239,-21.60916 z"
       id="path1077"
       inkscape:connector-curvature="0" />
    <path
       style="fill:#000000;stroke:#000000;stroke-width:0.04312537;stroke-opacity:0.91176471"
       d=""
       id="path1081"
       inkscape:connector-curvature="0" />
    <path
       style="fill:#000000;stroke:#000000;stroke-width:0.04312537;stroke-opacity:0.91176471"
       d="m 236.55915,274.94649 c -0.0111,-0.0111 -0.0582,-0.0277 -0.10421,-0.0365 -0.046,-0.009 -0.13936,-0.0387 -0.20747,-0.0666 -0.0681,-0.0278 -1.01902,-0.30102 -2.11314,-0.60705 -4.32592,-1.20993 -6.24006,-1.73068 -6.27719,-1.70774 -0.0214,0.0133 -0.0455,0.004 -0.0537,-0.0207 -0.009,-0.0245 -0.0729,-0.0489 -0.14385,-0.0542 -0.0709,-0.005 -0.14147,-0.0267 -0.15675,-0.0479 -0.0152,-0.021 -0.088,-0.0405 -0.16162,-0.0432 -0.0736,-0.002 -0.13387,-0.0217 -0.13394,-0.0422 -3e-5,-0.0206 -0.038,-0.0275 -0.0843,-0.0154 -0.0463,0.0124 -0.0902,0.004 -0.0974,-0.0178 -0.007,-0.0219 -0.0713,-0.0441 -0.14222,-0.0494 -0.0709,-0.005 -0.14027,-0.0249 -0.15411,-0.0436 -0.0139,-0.0187 -0.0818,-0.0381 -0.15094,-0.0432 -0.0692,-0.005 -0.13549,-0.0198 -0.14736,-0.0328 -0.04,-0.0438 -0.38954,-0.1315 -0.42845,-0.10743 -0.0212,0.0131 -0.0452,0.004 -0.0533,-0.0205 -0.009,-0.0244 -0.0776,-0.0488 -0.15454,-0.0542 -0.0769,-0.005 -0.1398,-0.0204 -0.13985,-0.0333 -1.3e-4,-0.0358 -0.38935,-0.13193 -0.43072,-0.10631 -0.02,0.0124 -0.0428,0.005 -0.0509,-0.0179 -0.007,-0.0222 -0.0727,-0.0465 -0.14384,-0.0542 -0.0712,-0.007 -0.14006,-0.0281 -0.15313,-0.0455 -0.0131,-0.0174 -0.0818,-0.0381 -0.15289,-0.0459 -0.071,-0.007 -0.15251,-0.0286 -0.18109,-0.0463 -0.0286,-0.0177 -0.0697,-0.0212 -0.0913,-0.007 -0.0217,0.0135 -0.0459,0.006 -0.054,-0.016 -0.007,-0.0222 -0.0727,-0.0465 -0.14384,-0.0542 -0.0712,-0.007 -0.14006,-0.0281 -0.15313,-0.0455 -0.0131,-0.0174 -0.0809,-0.0391 -0.15094,-0.0482 -0.0699,-0.009 -0.18293,-0.0387 -0.25107,-0.0662 -0.0681,-0.0275 -0.17486,-0.0566 -0.23718,-0.0647 -0.0624,-0.009 -0.16736,-0.0366 -0.23341,-0.0632 -0.0661,-0.0266 -0.13397,-0.0455 -0.15093,-0.0419 -0.017,0.004 -0.0869,-0.0166 -0.15543,-0.0448 -0.0686,-0.0282 -0.13465,-0.0412 -0.14696,-0.0288 -0.0124,0.0124 -0.0464,0.002 -0.0757,-0.0219 -0.0293,-0.0244 -0.0699,-0.0405 -0.0902,-0.0358 -0.0203,0.005 -0.091,-0.0139 -0.15698,-0.0411 -0.0661,-0.0274 -0.13397,-0.0467 -0.15093,-0.0432 -0.017,0.004 -0.0849,-0.0158 -0.15094,-0.0432 -0.0661,-0.0274 -0.13397,-0.0467 -0.15094,-0.0432 -0.017,0.004 -0.0866,-0.0165 -0.15473,-0.0445 -0.0681,-0.028 -0.17486,-0.0577 -0.23719,-0.0659 -0.0624,-0.009 -0.16735,-0.0366 -0.2334,-0.0632 -0.0661,-0.0266 -0.13397,-0.0455 -0.15094,-0.0419 -0.017,0.004 -0.0869,-0.0166 -0.15543,-0.0448 -0.0686,-0.0282 -0.13464,-0.0412 -0.14696,-0.0288 -0.0124,0.0124 -0.0464,0.002 -0.0757,-0.0219 -0.0293,-0.0244 -0.0699,-0.0405 -0.0902,-0.0358 -0.0203,0.005 -0.091,-0.0139 -0.15698,-0.0411 -0.0661,-0.0272 -0.13398,-0.0467 -0.15093,-0.0432 -0.017,0.004 -0.0859,-0.0162 -0.15307,-0.0439 -0.0672,-0.0277 -0.13865,-0.0402 -0.15874,-0.0279 -0.02,0.0124 -0.0495,10e-4 -0.0655,-0.0242 -0.016,-0.0257 -0.0548,-0.0369 -0.0865,-0.0246 -0.0317,0.0124 -0.0636,0.004 -0.071,-0.0179 -0.007,-0.022 -0.0718,-0.0474 -0.14294,-0.0564 -0.0712,-0.009 -0.18343,-0.0382 -0.24946,-0.065 -0.0661,-0.0266 -0.13398,-0.0455 -0.15094,-0.042 -0.017,0.004 -0.0831,-0.0151 -0.14692,-0.0416 -0.0639,-0.0265 -0.17058,-0.0538 -0.2372,-0.0609 -0.0666,-0.007 -0.13181,-0.0271 -0.14486,-0.0446 -0.0131,-0.0174 -0.0809,-0.0391 -0.15094,-0.0481 -0.0699,-0.009 -0.18219,-0.0385 -0.24941,-0.0656 -0.0672,-0.0271 -0.13864,-0.039 -0.15873,-0.0266 -0.02,0.0124 -0.0495,10e-4 -0.0655,-0.0241 -0.016,-0.0257 -0.0548,-0.0369 -0.0865,-0.0246 -0.0317,0.0124 -0.0636,0.005 -0.0712,-0.0156 -0.007,-0.0207 -0.0718,-0.0439 -0.14295,-0.0515 -0.0712,-0.007 -0.14054,-0.0288 -0.15419,-0.0473 -0.0136,-0.0184 -0.0864,-0.0379 -0.16163,-0.0432 -0.0753,-0.005 -0.13686,-0.0202 -0.13691,-0.0331 -1.2e-4,-0.0358 -0.38934,-0.13193 -0.43071,-0.10631 -0.02,0.0124 -0.0438,3.9e-4 -0.0527,-0.0266 -0.009,-0.027 -0.0786,-0.0514 -0.15453,-0.0542 -0.076,-0.002 -0.13819,-0.0173 -0.13824,-0.0323 -1.4e-4,-0.0386 -0.38493,-0.13084 -0.42988,-0.10309 -0.0205,0.0126 -0.0439,0.002 -0.0521,-0.0217 -0.009,-0.0245 -0.0729,-0.0489 -0.14385,-0.0542 -0.0709,-0.005 -0.13866,-0.0219 -0.15051,-0.037 -0.0124,-0.0151 -0.50673,-0.16725 -1.09971,-0.33809 -1.19849,-0.34529 -4.11074,-1.19872 -4.19227,-1.22855 -0.0358,-0.0131 0.23321,-0.86525 0.85179,-2.69889 0.49721,-1.4739 0.89315,-2.69739 0.87985,-2.7189 -0.0132,-0.0215 -0.001,-0.0391 0.0261,-0.0391 0.0276,0 0.0391,-0.0291 0.0255,-0.0647 -0.0136,-0.0357 -0.004,-0.0647 0.0215,-0.0647 0.0255,0 0.0351,-0.0291 0.0215,-0.0647 -0.0136,-0.0356 -0.004,-0.0647 0.0215,-0.0647 0.0255,0 0.0351,-0.0291 0.0215,-0.0647 -0.0136,-0.0356 -0.004,-0.0647 0.0215,-0.0647 0.0255,0 0.0352,-0.0291 0.0215,-0.0647 -0.0136,-0.0356 -0.004,-0.0647 0.0215,-0.0647 0.0255,0 0.0352,-0.0291 0.0215,-0.0647 -0.0136,-0.0356 -0.007,-0.0647 0.0131,-0.0647 0.0479,0 0.39632,-1.03395 0.36529,-1.08414 -0.0126,-0.0204 -3.1e-4,-0.0371 0.0273,-0.0371 0.0276,0 0.0391,-0.0291 0.0255,-0.0647 -0.0136,-0.0356 -0.004,-0.0647 0.0215,-0.0647 0.0255,0 0.0352,-0.0291 0.0215,-0.0647 -0.0136,-0.0356 -0.004,-0.0647 0.0215,-0.0647 0.0255,0 0.0352,-0.0291 0.0215,-0.0647 -0.0136,-0.0356 -0.004,-0.0647 0.0215,-0.0647 0.0255,0 0.0352,-0.0291 0.0215,-0.0647 -0.0136,-0.0356 -0.004,-0.0647 0.0215,-0.0647 0.0255,0 0.0356,-0.0278 0.0226,-0.0619 -0.0131,-0.034 -0.009,-0.0681 0.01,-0.0755 0.0314,-0.0125 0.33832,-0.88918 0.37129,-1.0607 0.007,-0.0407 0.0182,-0.079 0.023,-0.0849 0.005,-0.006 0.0136,-0.0302 0.0194,-0.054 0.006,-0.0238 0.0156,-0.0528 0.0215,-0.0647 0.006,-0.0124 0.0156,-0.041 0.0215,-0.0647 0.006,-0.0238 0.0156,-0.0529 0.0215,-0.0647 0.006,-0.0124 0.0156,-0.041 0.0215,-0.0647 0.006,-0.0238 0.0156,-0.0528 0.0215,-0.0647 0.006,-0.0124 0.0156,-0.041 0.0215,-0.0647 0.006,-0.0238 0.0156,-0.0528 0.0215,-0.0647 0.006,-0.0124 0.0148,-0.0361 0.0199,-0.054 0.005,-0.0178 0.0212,-0.0614 0.0358,-0.097 0.0147,-0.0357 0.24032,-0.70509 0.50138,-1.48782 0.26109,-0.78273 0.63204,-1.86949 0.82436,-2.41502 0.19233,-0.54554 0.42053,-1.20051 0.50714,-1.45548 0.13845,-0.40761 0.16933,-0.46361 0.25569,-0.46361 0.0541,0 0.0983,0.0173 0.0983,0.0385 0,0.0212 -1.15655,3.46716 -2.57011,7.65778 -1.41355,4.19064 -2.56018,7.62925 -2.54807,7.64137 0.0423,0.0423 4.34142,1.29249 7.44695,2.16547 2.36423,0.66461 4.97774,1.39121 10.02665,2.78761 8.7269,2.41362 8.07393,2.22121 8.28498,2.44149 0.10941,0.11411 0.11201,0.12426 0.0319,0.12426 -0.0479,0 -0.0964,-0.009 -0.10767,-0.0206 z"
       id="path1083"
       inkscape:connector-curvature="0" />
    <path
       style="fill:#000000;stroke:#000000;stroke-width:0.04312537;stroke-opacity:0.91176471"
       d="m 234.85447,281.72571 c -0.0126,-0.0203 -0.0477,-0.0275 -0.078,-0.0159 -0.0303,0.0111 -0.072,0.005 -0.0927,-0.0151 -0.0207,-0.0199 -0.0958,-0.0451 -0.16698,-0.0559 -0.10062,-0.0154 -1.07107,-0.27831 -1.29376,-0.35056 -0.0238,-0.007 -0.0571,-0.0187 -0.0741,-0.0244 -0.12005,-0.0401 -0.76522,-0.22331 -0.85007,-0.24148 -0.0577,-0.0124 -0.12066,-0.0322 -0.13999,-0.0442 -0.0193,-0.0124 -0.0692,-0.0299 -0.11089,-0.04 -0.0416,-0.01 -3.6076,-1.01858 -7.92445,-2.24125 -4.31684,-1.22266 -9.08112,-2.57116 -10.58727,-2.99667 -15.31113,-4.32565 -23.29175,-6.5881 -23.31267,-6.60903 -0.0139,-0.0139 -0.0187,-0.062 -0.0111,-0.10705 0.013,-0.0745 0.3623,0.0167 3.874,1.01118 4.74064,1.34254 23.49011,6.6413 26.97491,7.62335 1.39942,0.39437 3.1557,0.88939 3.90284,1.10003 8.10792,2.28591 9.97753,2.80619 10.12003,2.81624 0.10953,0.007 0.12681,-0.0124 0.19646,-0.22658 0.31594,-0.97238 0.8318,-4.88976 0.73698,-5.59657 -0.0239,-0.17802 -0.0286,-0.18236 -0.28835,-0.26723 -0.66434,-0.21704 -20.38334,-5.74419 -38.03073,-10.65987 -7.25985,-2.02222 -7.49267,-2.09024 -7.49304,-2.18912 -3.1e-4,-0.083 0.0177,-0.0984 0.0967,-0.0824 0.0533,0.0111 5.3987,1.49859 11.87853,3.30612 6.47983,1.80753 11.81659,3.29439 11.85947,3.30417 0.0939,0.0214 2.01522,0.55849 2.3205,0.64868 0.11856,0.035 0.25444,0.0727 0.30188,0.0835 0.0474,0.0111 0.16388,0.0404 0.25874,0.0655 0.0949,0.0251 0.20412,0.0532 0.24277,0.0625 0.0386,0.009 0.15899,0.0469 0.26744,0.0838 0.10841,0.0369 0.24178,0.0766 0.29631,0.0884 0.0545,0.0124 0.17675,0.042 0.27163,0.0672 0.0949,0.0251 0.20653,0.0538 0.24813,0.0636 0.0416,0.01 0.0915,0.0277 0.11089,0.0396 0.0194,0.0124 0.0823,0.0318 0.13998,0.0442 0.0577,0.0124 0.18243,0.0431 0.2773,0.0683 0.0949,0.0252 0.21917,0.0559 0.27621,0.0681 0.0571,0.0124 0.13952,0.0413 0.18328,0.0649 0.0438,0.0234 0.0796,0.0327 0.0796,0.0205 0,-0.0124 0.0533,-10e-4 0.11856,0.024 0.0652,0.0253 0.1671,0.0547 0.22641,0.0652 0.0593,0.0111 0.16602,0.0378 0.23719,0.0605 0.0712,0.0228 0.14878,0.0438 0.17249,0.0468 0.0238,0.002 0.0916,0.0242 0.15094,0.0473 0.0593,0.023 0.14664,0.0494 0.19407,0.0585 0.0474,0.009 1.24093,0.33912 2.6522,0.7333 1.41129,0.39419 2.62418,0.73196 2.69534,0.7506 0.0712,0.0187 0.18275,0.0551 0.24797,0.0811 0.0652,0.026 0.11856,0.0373 0.11856,0.0251 0,-0.0124 0.0358,-0.002 0.0796,0.0206 0.0438,0.0234 0.1311,0.0532 0.19406,0.0662 0.063,0.013 0.16601,0.0342 0.22897,0.0473 0.063,0.013 0.1503,0.0428 0.19407,0.0662 0.0438,0.0234 0.0796,0.0316 0.0796,0.0179 0,-0.0135 0.0358,-0.005 0.0796,0.0179 0.0438,0.0234 0.13595,0.0542 0.20485,0.0684 0.14991,0.0309 0.19119,0.0428 0.27619,0.0791 0.0357,0.0152 0.10347,0.0345 0.15094,0.0432 0.0474,0.009 0.11535,0.028 0.15094,0.0431 0.0356,0.0151 0.10347,0.0332 0.15094,0.0401 0.0474,0.007 0.10582,0.0247 0.12971,0.0397 0.0239,0.015 0.12092,0.0426 0.21562,0.0615 0.20803,0.0415 0.19983,0.0393 0.27999,0.072 0.14744,0.06 0.5175,0.1538 0.5175,0.13108 0,-0.0135 0.0271,-0.002 0.0601,0.0254 0.033,0.0275 0.0767,0.0462 0.097,0.0415 0.0203,-0.005 0.0918,0.0142 0.15909,0.0419 0.0672,0.0277 0.13865,0.0402 0.15874,0.0279 0.02,-0.0124 0.0474,-0.005 0.0606,0.0163 0.0201,0.0324 0.21543,0.09 0.39159,0.11535 0.0238,0.004 0.0972,0.0283 0.16322,0.0556 0.0661,0.0272 0.13397,0.0464 0.15093,0.0428 0.0169,-0.004 0.083,0.0151 0.14691,0.0416 0.0639,0.0265 0.17058,0.0538 0.2372,0.0609 0.0666,0.007 0.13107,0.0259 0.14323,0.042 0.0124,0.016 0.0801,0.0354 0.15094,0.0432 0.0708,0.007 0.13952,0.0283 0.15257,0.0458 0.0131,0.0174 0.0809,0.0391 0.15094,0.0482 0.0699,0.009 0.17943,0.0375 0.24326,0.0632 0.0639,0.0257 0.17058,0.0526 0.2372,0.0597 0.0666,0.007 0.13228,0.0279 0.14594,0.0463 0.0136,0.0184 0.0864,0.0379 0.16163,0.0432 0.0752,0.005 0.13685,0.0202 0.1369,0.033 1.3e-4,0.0358 0.38935,0.13193 0.43071,0.10631 0.02,-0.0124 0.0431,-0.002 0.0512,0.0222 0.009,0.0245 0.0729,0.0489 0.14385,0.0542 0.0709,0.005 0.13866,0.0219 0.15052,0.037 0.0124,0.0151 0.55524,0.17729 1.20751,0.36039 1.99615,0.56039 2.0269,0.57289 2.0269,0.82444 0,0.0567 0.0205,0.10296 0.0457,0.10296 0.0251,0 0.0342,0.0187 0.02,0.0416 -0.0204,0.033 -0.22689,2.04373 -0.34118,3.32221 -0.0291,0.32566 -0.26105,1.58915 -0.37547,2.04534 -0.0516,0.20591 -0.1358,0.43641 -0.18701,0.5122 -0.0825,0.12215 -0.11646,0.13799 -0.29907,0.13948 -0.11324,8.8e-4 -0.21625,-0.015 -0.22881,-0.0353 z"
       id="path1085"
       inkscape:connector-curvature="0" />
    <path
       style="fill:#000000;stroke:#000000;stroke-width:0.04312537;stroke-opacity:0.91176471"
       d="m 213.12672,276.02661 -22.89956,-6.47422 -0.0111,-3.42134 -0.0111,-3.42134 0.11943,0.0266 0.11943,0.0266 -0.11856,-0.0662 c -0.11151,-0.0623 -0.11857,-0.0839 -0.11857,-0.36447 V 262.034 l 0.11857,0.0392 c 0.33159,0.10966 25.37924,7.07563 25.39284,7.06203 0.009,-0.009 -0.20176,-0.0788 -0.46781,-0.15568 -3.46861,-1.00208 -4.6453,-1.3635 -4.645,-1.4267 1.8e-4,-0.0374 0.3102,-0.99835 0.68891,-2.13549 0.37872,-1.13714 0.68216,-2.07393 0.67431,-2.08178 -0.007,-0.007 -0.33883,0.94149 -0.73552,2.10963 -0.39671,1.16814 -0.72955,2.13729 -0.73966,2.15366 -0.0208,0.0337 -0.36276,-0.091 -0.36276,-0.13228 0,-0.0266 4.64985,-13.69291 5.03034,-14.78458 l 0.1992,-0.57152 9.49268,0.0111 9.49268,0.0111 0.24823,0.97032 c 4.31973,16.88635 5.55298,22.57088 5.40497,24.91357 -0.0512,0.81048 -0.23379,1.30774 -0.61691,1.6801 -0.39918,0.38794 -2.24966,1.39469 -2.56358,1.39469 -0.15715,0 -0.18538,-0.18554 -0.1805,-1.18594 0.002,-0.66632 0.0385,-1.30142 0.11857,-2.13339 0.11485,-1.19452 0.14868,-2.32853 0.0765,-2.56728 l -0.0391,-0.12938 -0.0261,0.15094 c -0.0556,0.32113 -0.67909,6.60893 -0.65747,6.63055 0.009,0.009 0.88571,-0.45688 1.94993,-1.0336 l 1.93493,-1.04859 0.0358,-0.38745 c 0.0197,-0.21309 0.0726,-0.69794 0.11769,-1.07744 0.0451,-0.37951 0.1613,-1.36923 0.25838,-2.19939 l 0.17649,-1.50939 -2.91149,-11.12634 c -1.60133,-6.1195 -2.92473,-11.18088 -2.94092,-11.24753 l -0.0294,-0.12116 0.2074,0.0134 0.20741,0.0134 2.9265,11.16947 c 1.60957,6.14322 2.92605,11.24711 2.92549,11.34198 -8.8e-4,0.18198 -0.59382,5.37207 -0.61561,5.39028 -0.007,0.006 -0.97743,0.53216 -2.15655,1.16963 -1.29995,0.70279 -2.14875,1.18623 -2.15627,1.22816 -0.01,0.0572 -3.98219,-1.05321 -22.91197,-6.40509 z m 22.65688,4.88099 c 0.0545,-0.5752 0.10718,-1.14283 0.1172,-1.26143 0.01,-0.11856 -0.0501,0.13369 -0.13364,0.56063 -0.24634,1.25843 -0.36777,1.56894 -0.61734,1.5785 -0.0871,0.004 -0.0572,0.0239 0.12178,0.0837 0.44239,0.1477 0.39944,0.22833 0.512,-0.96133 z m 0.50693,-5.58285 c -0.0327,-0.0327 -2.28608,-0.65977 -2.32595,-0.64726 -0.0192,0.006 0.38837,0.13231 0.90563,0.28068 1.02969,0.29535 1.32128,0.41442 1.34189,0.54796 0.0298,0.19313 0.0708,0.20657 0.085,0.0279 0.009,-0.10322 0.005,-0.19744 -0.006,-0.20926 z m -0.22111,-0.53018 c -0.0474,-0.0204 -0.11535,-0.037 -0.15094,-0.037 -0.0407,0 -0.0328,0.0137 0.0215,0.037 0.0474,0.0204 0.11535,0.037 0.15095,0.037 0.0407,0 0.0328,-0.0137 -0.0215,-0.037 z m -0.2414,-0.0618 c -0.01,-0.01 -0.98864,-0.28995 -2.17425,-0.62161 -3.48439,-0.97474 -4.38448,-1.22068 -4.40231,-1.20285 -0.0176,0.0176 6.4275,1.83136 6.53405,1.83879 0.0337,0.002 0.0527,-0.004 0.0426,-0.0143 z m -2.00112,-0.11076 c -0.0474,-0.0204 -0.11534,-0.037 -0.15093,-0.037 -0.0407,0 -0.0328,0.0137 0.0215,0.037 0.0474,0.0204 0.11535,0.037 0.15094,0.037 0.0407,0 0.0328,-0.0137 -0.0215,-0.037 z m -0.30187,-0.0863 c -0.0474,-0.0204 -0.11535,-0.037 -0.15094,-0.037 -0.0407,0 -0.0328,0.0137 0.0215,0.037 0.0474,0.0204 0.11535,0.037 0.15094,0.037 0.0407,0 0.0328,-0.0137 -0.0215,-0.037 z m -1.07815,-0.30186 c -0.0474,-0.0204 -0.11534,-0.037 -0.15092,-0.037 -0.0407,0 -0.0328,0.0137 0.0215,0.037 0.0474,0.0204 0.11535,0.037 0.15094,0.037 0.0407,0 0.0328,-0.0137 -0.0215,-0.037 z m -3.26764,-1.36294 c -0.0143,-0.0144 -0.0515,-0.0159 -0.0827,-0.004 -0.0344,0.0137 -0.0243,0.024 0.0261,0.0261 0.0454,10e-4 0.0709,-0.009 0.0565,-0.0226 z m -0.2255,-0.0601 c -0.0474,-0.0204 -0.11535,-0.037 -0.15094,-0.037 -0.0407,0 -0.0328,0.0137 0.0215,0.037 0.0474,0.0204 0.11534,0.037 0.15093,0.037 0.0407,0 0.0328,-0.0137 -0.0215,-0.037 z m -0.24887,-0.0692 c -0.0144,-0.0144 -0.0515,-0.0159 -0.0827,-0.004 -0.0344,0.0137 -0.0243,0.024 0.0261,0.0261 0.0454,10e-4 0.0709,-0.009 0.0566,-0.0226 z m -0.30188,-0.0863 c -0.0144,-0.0143 -0.0515,-0.0158 -0.0827,-0.004 -0.0344,0.0137 -0.0243,0.024 0.0261,0.0261 0.0454,10e-4 0.0709,-0.009 0.0566,-0.0226 z m -1.17427,-0.31894 c -0.0146,-0.0238 -0.0498,-0.0428 -0.078,-0.0424 -0.0308,4e-4 -0.0255,0.0173 0.0134,0.0424 0.0828,0.0536 0.0978,0.0536 0.0647,0 z m -0.90563,-0.25876 c -0.0474,-0.0204 -0.11535,-0.037 -0.15094,-0.037 -0.0407,0 -0.0328,0.0137 0.0215,0.037 0.0474,0.0204 0.11535,0.037 0.15094,0.037 0.0407,0 0.0328,-0.0137 -0.0215,-0.037 z m -0.85263,-0.24168 c -0.0144,-0.0144 -0.0515,-0.0158 -0.0827,-0.004 -0.0344,0.0137 -0.0243,0.024 0.026,0.0261 0.0454,0.001 0.0709,-0.009 0.0566,-0.0226 z m -8.11745,-2.25959 c -0.0474,-0.0204 -0.11534,-0.037 -0.15094,-0.037 -0.0407,0 -0.0328,0.0137 0.0215,0.037 0.0474,0.0204 0.11534,0.037 0.15094,0.037 0.0407,0 0.0328,-0.0137 -0.0215,-0.037 z m -0.77625,-0.21563 c -0.0474,-0.0204 -0.11535,-0.037 -0.15094,-0.037 -0.0407,0 -0.0328,0.0137 0.0215,0.037 0.0474,0.0204 0.11535,0.037 0.15094,0.037 0.0407,0 0.0328,-0.0137 -0.0215,-0.037 z"
       id="path1087"
       inkscape:connector-curvature="0" />
    <path
       style="fill:#000000;stroke:#000000;stroke-width:0.00539067;stroke-opacity:0.91176471"
       d="m 236.24432,275.54244 c -0.0124,-0.0615 -0.0171,-0.0762 -0.0391,-0.11373 -0.0386,-0.0658 -0.0652,-0.0922 -0.12553,-0.12399 -0.0543,-0.0287 -0.0896,-0.0402 -0.41888,-0.13674 -0.18129,-0.0531 -0.22415,-0.0667 -0.21287,-0.0675 0.0147,-8.8e-4 0.71562,0.20292 0.80032,0.23278 0.0146,0.005 0.0226,0.0111 0.0251,0.0206 0.009,0.0323 2.7e-4,0.23167 -0.0111,0.25191 -0.002,0.005 -0.01,-0.0215 -0.0181,-0.0634 z"
       id="path1089"
       inkscape:connector-curvature="0" />
    <path
       style="fill:#000000;stroke:#000000;stroke-width:0.00539067;stroke-opacity:0.91176471"
       d=""
       id="path1091"
       inkscape:connector-curvature="0" />
    <path
       style="fill:#000000;stroke:#000000;stroke-width:0.00539067;stroke-opacity:0.91176471"
       d=""
       id="path1093"
       inkscape:connector-curvature="0" />
    <path
       style="fill:#000000;stroke:#000000;stroke-width:0.00539067;stroke-opacity:0.91176471"
       d=""
       id="path1095"
       inkscape:connector-curvature="0" />
    <path
       style="fill:#000000;stroke:#000000;stroke-width:0.00539067;stroke-opacity:0.91176471"
       d=""
       id="path1097"
       inkscape:connector-curvature="0" />
    <path
       style="fill:#000000;stroke:#000000;stroke-width:0.03049423;stroke-opacity:0.91176471"
       d="m 240.23214,276.79692 c -0.18305,-2.19219 -0.95843,-5.9631 -2.6554,-12.91431 -0.36547,-1.49703 -2.05325,-8.22505 -2.11847,-8.44488 -0.0322,-0.1083 -0.0204,-0.15635 0.0261,-0.10669 0.0147,0.0156 1.15986,4.36475 2.54491,9.66465 l 2.51826,9.63617 -0.14621,1.21978 -0.14621,1.21976 z"
       id="path1099"
       inkscape:connector-curvature="0" />
    <path
       style="fill:#000000;stroke:#000000;stroke-width:0.02156269;stroke-opacity:0.91176471"
       d="m 236.14867,281.69118 c 0.007,-0.0563 0.0375,-0.37412 0.0679,-0.70618 0.0304,-0.33207 0.0721,-0.77356 0.0927,-0.98111 l 0.0374,-0.37733 0.0154,0.54984 c 0.0158,0.57006 0.0448,0.80902 0.11819,0.97476 0.0797,0.18034 0.24642,0.24436 0.46821,0.17988 0.0681,-0.0198 0.12727,-0.0323 0.1317,-0.0278 0.009,0.009 -0.90058,0.49043 -0.92691,0.49043 -0.01,0 -0.0111,-0.046 -0.005,-0.10248 z"
       id="path1101"
       inkscape:connector-curvature="0" />
    <path
       style="fill:#000000;stroke:#000000;stroke-width:0.02156269;stroke-opacity:0.91176471"
       d="m 239.50783,279.93839 c 0.15161,-0.13365 0.32429,-0.34853 0.42106,-0.52395 l 0.0733,-0.13289 -0.0136,0.19406 c -0.007,0.10668 -0.0183,0.21409 -0.024,0.23855 -0.007,0.0306 -0.0939,0.0896 -0.27696,0.18868 -0.14659,0.0793 -0.27455,0.14405 -0.28438,0.14387 -0.01,-1.6e-4 0.0373,-0.0489 0.10471,-0.10829 z"
       id="path1103"
       inkscape:connector-curvature="0" />
    <path
       style="fill:#000000;stroke:#000000;stroke-width:0.02156269;stroke-opacity:0.91176471"
       d="m 235.43931,281.88815 c -0.0593,-0.0174 -0.13454,-0.0422 -0.16722,-0.0551 l -0.0594,-0.0233 0.0698,-0.035 c 0.16451,-0.0827 0.26572,-0.36245 0.45732,-1.26415 0.0403,-0.18975 0.0741,-0.33035 0.0751,-0.31244 0.004,0.0688 -0.12779,1.39712 -0.15056,1.51996 -0.0214,0.11547 -0.0687,0.20752 -0.10433,0.20335 -0.007,-8.9e-4 -0.0614,-0.0158 -0.12067,-0.0333 z"
       id="path1105"
       inkscape:connector-curvature="0" />
    <path
       style="fill:#000000;stroke:#000000;stroke-width:0.02156269;stroke-opacity:0.91176471"
       d=""
       id="path1107"
       inkscape:connector-curvature="0" />
    <path
       style="fill:#000000;stroke:#000000;stroke-width:0.02156269;stroke-opacity:0.91176471"
       d="m 236.71568,281.33404 c 0.009,-0.0139 -8.7e-4,-0.0165 -0.0259,-0.007 -0.0238,0.009 -0.0464,0.004 -0.0567,-0.0125 -0.01,-0.0152 -0.0296,-0.0277 -0.0448,-0.0277 -0.0152,0 -0.0277,-0.0129 -0.0277,-0.0287 0,-0.0157 -0.0168,-0.041 -0.0374,-0.0561 -0.0205,-0.0151 -0.0311,-0.0337 -0.0234,-0.0413 0.007,-0.007 0.002,-0.014 -0.0124,-0.014 -0.0145,0 -0.0204,-0.01 -0.0131,-0.0215 0.007,-0.0124 0.002,-0.0215 -0.0111,-0.0215 -0.015,0 -0.0187,-0.0176 -0.01,-0.0458 0.0111,-0.0335 0.007,-0.0413 -0.0125,-0.0292 -0.0202,0.0125 -0.0234,0.002 -0.0126,-0.0403 0.009,-0.0366 0.005,-0.0572 -0.01,-0.0572 -0.0162,0 -0.0196,-0.0254 -0.01,-0.0755 0.009,-0.0479 0.006,-0.0755 -0.009,-0.0755 -0.015,0 -0.0188,-0.0443 -0.0111,-0.12764 0.007,-0.0776 0.002,-0.13305 -0.01,-0.14141 -0.0234,-0.0145 -0.0183,-0.28056 0.0226,-1.17109 0.0124,-0.26433 0.016,-0.49964 0.009,-0.52289 -0.007,-0.0249 -0.004,-0.0423 0.0111,-0.0423 0.0153,0 0.0229,-0.0416 0.0205,-0.11324 -0.002,-0.0623 0.002,-0.18112 0.01,-0.26414 0.0141,-0.15675 0.0965,-0.96474 0.1099,-1.07813 0.005,-0.0357 0.047,-0.43827 0.0953,-0.89486 0.0481,-0.45659 0.0972,-0.90293 0.10867,-0.99188 0.0111,-0.089 0.0219,-0.18113 0.023,-0.20485 0.001,-0.0386 0.004,-0.0379 0.0223,0.007 0.0652,0.16289 0.0415,1.12554 -0.0564,2.27835 -0.12416,1.46309 -0.12536,1.4858 -0.12683,2.41502 -0.001,0.93777 0.007,1.0442 0.0901,1.13743 0.0769,0.0861 0.27203,0.0317 0.80325,-0.22445 0.7217,-0.34784 1.5492,-0.84161 1.84116,-1.09861 0.30106,-0.26501 0.50371,-0.67241 0.59942,-1.20512 0.0645,-0.35887 0.0783,-1.19686 0.0292,-1.76819 -0.10148,-1.18016 -0.36981,-2.79408 -0.81203,-4.88394 -0.0828,-0.39136 -0.15614,-0.73825 -0.16295,-0.77087 -0.0124,-0.0585 -0.0111,-0.0593 0.0974,-0.0593 0.1104,0 0.16232,0.0374 0.13957,0.10049 -0.005,0.0137 8.8e-4,0.0311 0.0128,0.0384 0.0124,0.007 0.0162,0.0278 0.01,0.0454 -0.006,0.0176 -10e-4,0.0448 0.0111,0.0606 0.0131,0.0157 0.0178,0.0346 0.01,0.0419 -0.007,0.007 -0.006,0.0307 0.002,0.0519 0.0192,0.0452 0.0327,0.10953 0.0339,0.16223 4.5e-4,0.0205 0.01,0.0427 0.0202,0.0492 0.0111,0.006 0.014,0.0256 0.007,0.0426 -0.006,0.0168 -0.004,0.0431 0.005,0.0583 0.01,0.0152 0.0193,0.0423 0.0222,0.0603 0.002,0.0181 0.0111,0.0619 0.0181,0.0974 0.007,0.0356 0.0132,0.0814 0.0135,0.10198 2.5e-4,0.0205 0.009,0.0423 0.0187,0.0485 0.01,0.006 0.0134,0.0296 0.007,0.0519 -0.006,0.0224 -8.9e-4,0.0467 0.0111,0.054 0.0124,0.007 0.0167,0.0316 0.0111,0.0538 -0.006,0.0224 -8.8e-4,0.0467 0.0111,0.054 0.0124,0.007 0.0167,0.0316 0.0111,0.054 -0.006,0.0224 -8.8e-4,0.0467 0.0111,0.054 0.0124,0.007 0.0167,0.0316 0.0111,0.0538 -0.006,0.0224 -8.9e-4,0.0467 0.0111,0.054 0.0124,0.007 0.0167,0.0316 0.0111,0.054 -0.006,0.0223 -8.8e-4,0.0467 0.0111,0.0538 0.0124,0.007 0.0167,0.0315 0.0111,0.0539 -0.006,0.0224 -8.8e-4,0.0467 0.0111,0.054 0.0124,0.007 0.0167,0.0316 0.0111,0.054 -0.006,0.0224 -8.8e-4,0.0467 0.0111,0.054 0.0124,0.007 0.0166,0.0316 0.0111,0.054 -0.006,0.0224 -4.5e-4,0.0469 0.0124,0.0546 0.0124,0.007 0.017,0.0282 0.01,0.0458 -0.006,0.0176 -0.001,0.0448 0.0111,0.0607 0.0131,0.0157 0.0178,0.0346 0.01,0.0419 -0.007,0.007 -0.006,0.0307 0.004,0.052 0.01,0.0213 0.0196,0.058 0.0226,0.0818 0.002,0.0238 0.0111,0.0723 0.0188,0.10779 0.007,0.0357 0.013,0.086 0.0127,0.11213 -3.4e-4,0.0261 0.009,0.0531 0.0197,0.06 0.0111,0.007 0.015,0.0264 0.009,0.0432 -0.006,0.0168 -0.005,0.0427 0.005,0.0575 0.0151,0.0244 0.0256,0.0807 0.0317,0.16923 0.001,0.0178 0.007,0.0469 0.014,0.0647 0.0111,0.0321 0.0249,0.11028 0.0292,0.1725 0.001,0.0178 0.007,0.0469 0.014,0.0647 0.0147,0.0406 0.0275,0.1256 0.028,0.18761 2.3e-4,0.0261 0.01,0.0533 0.0216,0.0606 0.0111,0.007 0.0156,0.0358 0.009,0.0634 -0.007,0.0276 -0.004,0.0559 0.007,0.0629 0.0111,0.007 0.016,0.036 0.01,0.0645 -0.005,0.0286 2.8e-4,0.0582 0.0128,0.0658 0.0125,0.007 0.0172,0.0282 0.01,0.0457 -0.006,0.0174 -0.005,0.0486 0.004,0.0694 0.009,0.0208 0.0142,0.0587 0.0124,0.0842 -0.002,0.0256 0.005,0.0526 0.0174,0.06 0.0124,0.007 0.0165,0.0277 0.01,0.0452 -0.006,0.0174 -0.005,0.0486 0.005,0.0694 0.017,0.0386 0.0295,0.12728 0.0306,0.21778 3.6e-4,0.0279 0.007,0.0619 0.016,0.0755 0.009,0.0136 0.0125,0.0515 0.009,0.084 -0.004,0.0327 0.004,0.0593 0.0156,0.0593 0.0129,0 0.0168,0.0308 0.01,0.0755 -0.007,0.0468 -0.004,0.0755 0.0111,0.0755 0.0142,0 0.0183,0.0287 0.0111,0.0755 -0.009,0.0496 -0.004,0.0755 0.0125,0.0755 0.0157,0 0.0198,0.0198 0.0111,0.0538 -0.007,0.0296 -0.006,0.0709 0.002,0.0916 0.009,0.0208 0.014,0.0693 0.0111,0.10792 -0.002,0.0386 0.005,0.07 0.0166,0.07 0.0124,0 0.0163,0.0356 0.01,0.0834 -0.006,0.0462 -0.001,0.0895 0.0111,0.097 0.0124,0.007 0.017,0.0515 0.01,0.0999 -0.006,0.05 -0.002,0.0863 0.01,0.0863 0.0125,0 0.017,0.0444 0.0111,0.10779 -0.006,0.0616 -0.001,0.1078 0.01,0.1078 0.0124,0 0.0165,0.0514 0.0111,0.12166 -0.006,0.0679 -10e-4,0.11645 0.009,0.1099 0.01,-0.006 0.0191,0.0673 0.0192,0.16403 2e-5,0.0967 0.004,0.23408 0.007,0.30523 0.004,0.0712 -0.0319,0.45601 -0.0798,0.85521 -0.0479,0.39922 -0.0939,0.80027 -0.1021,0.89122 -0.0111,0.12104 -0.0342,0.20536 -0.0865,0.31456 -0.0392,0.0821 -0.0675,0.1492 -0.0626,0.1492 0.005,0 -0.015,0.0257 -0.0442,0.0573 -0.0292,0.0314 -0.0485,0.0619 -0.043,0.0673 0.005,0.006 -0.0111,0.028 -0.0375,0.0499 -0.0262,0.0219 -0.0412,0.0401 -0.0334,0.0405 0.0216,8.8e-4 -0.30307,0.31177 -0.41318,0.39529 -0.0533,0.0405 -0.14802,0.10495 -0.21023,0.14327 -0.0623,0.0382 -0.11312,0.0791 -0.11312,0.0906 0,0.0111 -0.01,0.015 -0.0215,0.007 -0.0124,-0.007 -0.0215,-0.002 -0.0215,0.0111 0,0.0132 -0.009,0.0187 -0.0198,0.0124 -0.0111,-0.006 -0.023,-0.004 -0.027,0.007 -0.004,0.01 -0.0703,0.0506 -0.14739,0.0892 -0.0771,0.0386 -0.36819,0.19402 -0.64689,0.34532 -0.27869,0.15128 -0.54067,0.29312 -0.58217,0.31519 -0.0415,0.022 -0.0803,0.0449 -0.0863,0.0509 -0.006,0.006 -0.0254,0.0139 -0.0432,0.0176 -0.0178,0.004 -0.11597,0.0401 -0.2183,0.0808 -0.10223,0.0407 -0.19745,0.074 -0.21151,0.074 -0.014,0 -0.0193,0.01 -0.0111,0.0224 0.009,0.0146 -0.006,0.0173 -0.0451,0.007 -0.0374,-0.01 -0.0541,-0.007 -0.0455,0.007 0.009,0.0132 -0.0239,0.0217 -0.0824,0.0217 -0.06,0 -0.0907,-0.009 -0.0821,-0.0222 z"
       id="path1109"
       inkscape:connector-curvature="0" />
    <path
       style="fill:#000000;stroke:#000000;stroke-width:0.00762356;stroke-opacity:0.91176471"
       d="m 234.14417,281.98635 c -1.04195,-0.29467 -2.05998,-0.58265 -2.26229,-0.63997 l -0.36785,-0.10421 v -2.27846 -2.27847 h 4.34544 4.34543 v 0.0334 c 0,0.0217 0.005,0.037 0.0125,0.0438 0.0111,0.01 0.0124,0.006 0.009,-0.0334 l -0.004,-0.0438 h 0.0391 0.0392 l -0.021,0.17228 c -0.0111,0.0947 -0.0223,0.17794 -0.0239,0.18486 -0.001,0.007 -0.006,-0.0286 -0.01,-0.0788 l -0.006,-0.0915 -0.005,0.0572 c -0.002,0.0314 -0.002,0.1104 0.001,0.17535 0.004,0.065 0.006,0.14046 0.007,0.16772 0.001,0.0929 0.0132,0.0239 0.0452,-0.26682 0.0173,-0.15724 0.033,-0.29361 0.0351,-0.30304 l 0.004,-0.0172 h 0.22075 0.22074 l -0.004,0.021 c -0.002,0.0111 -0.0209,0.17363 -0.042,0.36021 -0.11782,1.04388 -0.3417,2.96544 -0.34649,2.97317 -0.002,0.004 -0.0323,0.0217 -0.0668,0.0401 -0.13217,0.0708 -2.56025,1.38656 -2.79585,1.51512 -0.13627,0.0744 -0.41415,0.22531 -0.61751,0.33543 -0.46566,0.25218 -0.54905,0.29871 -0.68784,0.38386 -0.15457,0.0948 -0.15061,0.0911 -0.15595,0.14598 -0.002,0.0251 -0.006,0.0494 -0.009,0.0538 -0.002,0.005 -0.67638,-0.1818 -1.89915,-0.5276 z m 1.48437,-0.0656 c 0.0441,-0.0483 0.0438,-0.0459 0.15061,-1.16449 0.0358,-0.37527 0.0696,-0.728 0.075,-0.78384 0.005,-0.0558 0.007,-0.10297 0.005,-0.1047 -0.002,-0.001 -0.007,0.0111 -0.01,0.0288 -0.002,0.0176 -0.009,0.034 -0.0124,0.0365 -0.004,0.002 -0.0245,0.0986 -0.0457,0.21369 -0.11336,0.61696 -0.19543,0.97874 -0.28598,1.26064 -0.0187,0.0583 -0.0328,0.1073 -0.0313,0.10879 0.005,0.005 0.0506,-0.12764 0.085,-0.24604 0.0431,-0.14838 0.0896,-0.33929 0.15215,-0.62447 0.0719,-0.32765 0.0979,-0.43865 0.10161,-0.43489 0.009,0.009 -0.0947,1.07399 -0.13625,1.40991 -0.0199,0.16041 -0.0573,0.27228 -0.0986,0.29437 -0.0152,0.009 -0.13247,-0.0225 -0.26287,-0.0687 -0.0377,-0.0134 -0.0746,-0.0261 -0.082,-0.0283 -0.01,-0.002 -0.0111,-0.006 -0.006,-0.0132 0.006,-0.007 -0.002,-0.007 -0.0349,-0.004 -0.0234,0.002 -0.0438,0.007 -0.0455,0.009 -0.002,0.002 0.24845,0.0792 0.36273,0.10965 0.0823,0.022 0.10037,0.022 0.1198,8.9e-4 z m 0.17024,-1.73888 c 1.7e-4,-0.005 0.006,-0.0391 0.0144,-0.0761 0.007,-0.037 0.0124,-0.0739 0.01,-0.0819 -0.002,-0.009 2e-5,-0.0146 0.005,-0.0146 0.005,0 0.009,-0.009 0.009,-0.0203 0,-0.0111 0.002,-0.0183 0.005,-0.0158 0.002,0.002 2.5e-4,0.0507 -0.005,0.10742 -0.009,0.0896 -0.0111,0.10347 -0.0235,0.10669 -0.007,0.002 -0.014,-2.2e-4 -0.0139,-0.005 z m 0.77516,1.42198 c 0.24647,-0.1334 0.53306,-0.28831 0.63689,-0.34423 0.10383,-0.0559 0.18769,-0.10272 0.18637,-0.10408 -0.001,-10e-4 -0.076,0.0269 -0.16582,0.0626 -0.0899,0.0358 -0.18316,0.0708 -0.20731,0.078 -0.0241,0.007 -0.0439,0.016 -0.0439,0.0196 0,0.004 0.007,0.005 0.0172,10e-4 0.01,-0.002 0.0308,-0.006 0.0477,-0.009 l 0.0304,-0.005 -0.0343,0.0223 c -0.10223,0.0663 -0.88097,0.47268 -0.88956,0.46409 -0.007,-0.007 -0.004,-0.0906 0.009,-0.21075 0.006,-0.0608 0.0389,-0.40387 0.0724,-0.76236 0.0335,-0.3585 0.0724,-0.76675 0.0863,-0.90721 l 0.0252,-0.25539 0.005,0.11745 c 0.002,0.0646 0.006,0.1538 0.006,0.19822 9e-4,0.075 10e-4,0.0777 0.007,0.0389 0.004,-0.023 0.005,-0.11993 0.001,-0.21537 -0.004,-0.14323 -0.006,-0.17344 -0.0158,-0.17344 -0.0124,0 -0.0139,0.024 0.0207,-0.31256 0.0147,-0.14372 0.021,-0.1857 0.0217,-0.14549 0.001,0.10334 0.006,0.0522 0.0111,-0.11374 0.002,-0.0901 0.002,-0.15876 8.9e-4,-0.15247 -10e-4,0.006 -0.0668,0.66326 -0.14422,1.45992 -0.0775,0.79666 -0.142,1.4579 -0.14347,1.46944 -0.001,0.0111 5e-5,0.021 0.004,0.021 0.004,0 0.20772,-0.10916 0.45419,-0.24257 z m -1.21255,0.10186 c 0,-0.006 -0.002,-0.01 -0.006,-0.007 -0.004,0.002 -0.005,0.007 -0.002,0.0111 0.006,0.01 0.009,0.009 0.009,-0.004 z m 0.0331,-0.0317 c 0,-0.006 -0.0147,-0.01 -0.0182,-0.005 -0.002,0.004 8.9e-4,0.006 0.007,0.006 0.006,0 0.0111,-8.8e-4 0.0111,-0.002 z m 0.0686,-0.12717 c 6e-5,-0.004 -0.005,-10e-4 -0.01,0.004 -0.006,0.005 -0.009,0.0127 -0.006,0.0163 0.004,0.006 0.017,-0.009 0.0172,-0.0202 z m 1.4505,-0.20868 c -0.005,-0.002 -0.0139,-0.002 -0.019,0 -0.005,0.002 -8.8e-4,0.004 0.01,0.004 0.01,0 0.0148,-10e-4 0.01,-0.004 z m -0.38252,-0.11138 -0.0177,-0.017 0.0134,0.0212 c 0.007,0.0111 0.0154,0.0193 0.0177,0.017 0.002,-0.002 -0.004,-0.0124 -0.0134,-0.0212 z m 2.97461,-1.20896 0.46929,-0.25432 0.005,-0.0544 c 0.002,-0.03 0.0168,-0.15907 0.0312,-0.28697 0.0144,-0.12788 0.026,-0.23872 0.026,-0.24631 0,-0.0195 -0.0125,-0.01 -0.0187,0.0151 -0.002,0.0111 -0.0224,0.0568 -0.0434,0.10111 -0.0394,0.0826 -0.0645,0.14494 -0.0545,0.13498 0.002,-0.002 0.0221,-0.0354 0.0426,-0.0719 l 0.0369,-0.0663 -0.005,0.0762 c -0.0111,0.17868 -0.0283,0.34364 -0.0389,0.35999 -0.0166,0.0257 -0.0808,0.0712 -0.18615,0.13142 -0.12252,0.07 -0.35085,0.18567 -0.35622,0.18029 -0.002,-0.002 0.0575,-0.0651 0.13298,-0.1397 0.0754,-0.0745 0.15202,-0.15444 0.17022,-0.17749 0.0202,-0.0256 -0.0158,0.006 -0.0923,0.0802 -0.20667,0.20144 -0.28001,0.26131 -0.47605,0.38864 -0.10916,0.0708 -0.14031,0.0932 -0.12116,0.0866 0.005,-0.001 0.21957,-0.11733 0.47768,-0.25718 z m -3.12962,-0.38034 c -0.001,-0.0283 -0.002,-0.005 -0.002,0.0515 0,0.0566 0.001,0.0798 0.002,0.0515 0.001,-0.0283 0.001,-0.0746 0,-0.10297 z m -0.49443,0.0629 c -4.5e-4,-0.0224 -8.8e-4,-0.0225 -0.006,-0.004 -0.004,0.01 -0.006,0.0259 -0.006,0.0343 -4.5e-4,0.0126 4.4e-4,0.0132 0.006,0.004 0.004,-0.006 0.007,-0.0218 0.006,-0.0343 z m 3.8976,-0.0593 0.0171,-0.0245 -0.0174,0.0151 c -0.01,0.009 -0.0208,0.0215 -0.0251,0.0294 -0.0124,0.0224 0.005,0.009 0.0254,-0.0202 z m -3.39563,-0.16772 c -0.001,-0.0177 -0.002,-0.001 -0.002,0.0364 3e-5,0.0377 0.001,0.0522 0.002,0.0322 0.001,-0.0201 0.001,-0.0509 -5e-5,-0.0686 z m 3.48183,0.0465 c 0.007,-0.0124 0.0111,-0.0214 0.009,-0.0214 -0.006,0 -0.05,0.0624 -0.0499,0.0717 1.8e-4,0.009 0.0217,-0.0168 0.0413,-0.0501 z m -3.48211,-0.11856 c -0.001,-0.007 -0.004,-0.002 -0.004,0.01 -1.5e-4,0.0126 0.001,0.0187 0.004,0.0135 0.002,-0.005 0.002,-0.0155 2.7e-4,-0.0229 z m 0.007,-0.1371 c -0.001,-0.0242 -0.002,-0.006 -0.002,0.0397 -2e-5,0.0462 0.001,0.066 0.002,0.0442 0.001,-0.0219 0.001,-0.0596 3e-5,-0.0839 z m 0.0382,-0.57395 -3.1e-4,-0.0495 -0.006,0.0419 c -0.002,0.023 -0.006,0.054 -0.006,0.0686 0,0.0241 4.4e-4,0.0249 0.006,0.007 0.004,-0.01 0.006,-0.0413 0.006,-0.0686 z"
       id="path1111"
       inkscape:connector-curvature="0" />
    <path
       style="fill:#000000;stroke:#000000;stroke-width:0.00762356;stroke-opacity:0.91176471"
       d="m 235.56977,282.39004 c -0.25786,-0.0729 -0.71242,-0.2012 -1.01011,-0.28523 -1.45717,-0.41127 -2.99868,-0.84711 -3.02084,-0.85409 l -0.0247,-0.007 v -2.27886 -2.27885 h 4.34542 4.34544 v 0.0252 c 0,0.0139 0.005,0.0317 0.01,0.0395 0.009,0.0126 0.01,0.01 0.006,-0.0252 l -0.004,-0.0395 h 0.0428 c 0.0235,0 0.0428,0.002 0.0428,0.006 -2e-4,0.0212 -0.0449,0.35432 -0.0479,0.35737 -0.002,0.002 -0.007,-0.0213 -0.0111,-0.052 l -0.007,-0.0558 v 0.0876 c 0,0.13795 0.009,0.26834 0.0151,0.23633 0.005,-0.0253 0.0667,-0.54937 0.0667,-0.56976 0,-0.007 0.0489,-0.01 0.22557,-0.01 h 0.22557 l -0.005,0.0286 c -0.002,0.0157 -0.0389,0.33047 -0.0809,0.69946 -0.0778,0.68292 -0.20833,1.80953 -0.27019,2.33233 -0.0217,0.18313 -0.0377,0.29272 -0.0439,0.29876 -0.005,0.005 -0.59978,0.32915 -1.32098,0.71981 -2.32914,1.26166 -2.79154,1.51592 -2.94045,1.61694 -0.0457,0.0309 -0.0593,0.0564 -0.0594,0.11089 -3e-5,0.0134 -0.002,0.0257 -0.006,0.0275 -0.004,0.001 -0.21671,-0.0566 -0.47456,-0.12938 z m 0.0641,-0.48326 c 0.0234,-0.0277 0.0254,-0.0495 0.005,-0.0548 -0.01,-0.002 -0.0158,9e-4 -0.0188,0.0126 -0.002,0.009 -0.0144,0.0262 -0.0269,0.0382 l -0.0228,0.0218 -0.0509,-0.0127 c -0.028,-0.007 -0.0523,-0.0111 -0.0541,-0.01 -0.006,0.006 0.0838,0.0264 0.11695,0.0272 0.0265,4.3e-4 0.0349,-0.004 0.0515,-0.0226 z m -0.17912,-0.01 c -0.006,-0.006 -0.18412,-0.0567 -0.1777,-0.0505 0.004,0.004 0.0411,0.017 0.083,0.0297 0.0703,0.0212 0.10259,0.0283 0.0947,0.0208 z m -0.19688,-0.061 c -0.01,-0.0111 -0.0433,-0.0204 -0.0505,-0.0133 -0.002,0.002 0.007,0.009 0.0208,0.0135 0.0339,0.0124 0.0401,0.0124 0.0297,-2.9e-4 z m 1.00312,-0.0676 c 0.0727,-0.0387 0.13203,-0.0747 0.13205,-0.0798 3e-5,-0.005 -0.0517,0.0162 -0.11732,0.0486 -0.0645,0.0318 -0.12117,0.0556 -0.12578,0.0527 -0.005,-0.002 -0.009,-0.0228 -0.009,-0.0444 0,-0.0228 -0.002,-0.0361 -0.006,-0.0319 -0.007,0.009 -0.0182,0.1254 -0.0111,0.1254 0.002,0 0.0645,-0.0317 0.13709,-0.0705 z m -0.5916,0.0232 c 0.007,-0.0423 -0.0111,-0.0433 -0.0213,-10e-4 -0.007,0.0297 -0.006,0.0337 0.005,0.0317 0.007,-0.001 0.014,-0.0132 0.0168,-0.0306 z m 0.0222,-0.14222 c -6e-5,-0.007 -0.002,-0.0171 -0.006,-0.0229 -0.005,-0.007 -0.007,-8.8e-4 -0.01,0.0204 -0.002,0.0244 -8.8e-4,0.0292 0.006,0.0229 0.005,-0.005 0.01,-0.0136 0.01,-0.0204 z m 0.80129,-0.006 c 0.037,-0.0196 0.0655,-0.0385 0.0632,-0.0421 -0.005,-0.007 -0.14016,0.0616 -0.14016,0.0714 0,0.01 0.006,0.007 0.077,-0.0292 z m -0.34612,-0.0389 c -0.001,-0.007 -0.004,-0.001 -0.004,0.0134 0,0.0146 10e-4,0.0207 0.004,0.0134 0.001,-0.007 0.001,-0.0193 0,-0.0267 z m -0.44732,-0.0527 c 0.0139,-0.11151 0.0541,-0.5533 0.0519,-0.56907 -0.001,-0.009 -0.009,0.0468 -0.0165,0.12437 -0.007,0.0776 -0.0223,0.2163 -0.0324,0.30829 -0.01,0.092 -0.0183,0.17405 -0.0183,0.18234 0,0.0314 0.009,0.004 0.0153,-0.0459 z m 0.97091,-0.002 c 0.036,-0.0188 0.0672,-0.0389 0.0693,-0.0443 0.002,-0.005 -0.0303,0.007 -0.0723,0.0298 -0.0419,0.0219 -0.0761,0.0431 -0.0761,0.0469 0,0.009 8.8e-4,0.009 0.0791,-0.0324 z m -0.51414,0.01 c -4.4e-4,-0.0186 -10e-4,-0.0192 -0.007,-0.006 -0.009,0.0208 -0.009,0.0266 0,0.0266 0.004,0 0.007,-0.01 0.007,-0.0209 z m 0.75589,-0.14402 c 0.006,-0.006 0.0144,-0.009 0.0171,-0.005 0.002,0.002 0.005,8.8e-4 0.005,-0.004 0,-0.005 -0.002,-0.009 -0.006,-0.009 -0.0137,4.3e-4 -0.16917,0.0891 -0.16462,0.0937 0.005,0.005 0.12587,-0.0568 0.14808,-0.076 z m -0.68251,-0.5922 c 0.0321,-0.34308 0.0564,-0.62556 0.0542,-0.62774 -0.005,-0.005 -0.01,0.0332 -0.028,0.21851 -0.009,0.086 -0.0339,0.35349 -0.0571,0.59451 -0.0231,0.24103 -0.0417,0.44857 -0.0412,0.46122 l 8.8e-4,0.023 0.006,-0.0229 c 0.004,-0.0126 0.0327,-0.30358 0.0647,-0.64664 z m 0.78862,0.53123 c 0,-0.007 -0.006,-0.006 -0.0229,0.004 -0.0125,0.007 -0.0228,0.0157 -0.0229,0.0192 -3e-5,0.004 -0.004,0.004 -0.009,8.7e-4 -0.005,-0.004 -0.006,-0.002 -0.004,0.002 0.006,0.0111 0.058,-0.0124 0.058,-0.0264 z m 0.12203,-0.0603 c 0,-0.002 -0.01,0.001 -0.0222,0.007 -0.0194,0.01 -0.0226,0.01 -0.0264,2.8e-4 -0.004,-0.009 -0.009,-0.007 -0.0236,0.009 -0.0317,0.0317 -0.0223,0.0355 0.0264,0.0111 0.0251,-0.0127 0.0458,-0.0249 0.0458,-0.027 z m -0.10569,0.009 c 0.0141,-0.006 0.0218,-0.0111 0.0169,-0.0111 -0.005,-1.6e-4 -0.0202,0.005 -0.0343,0.0111 -0.0141,0.006 -0.0218,0.0111 -0.017,0.0111 0.005,1.7e-4 0.0202,-0.005 0.0343,-0.0111 z m 0.13258,-0.0255 c -0.002,-0.002 -0.009,-2e-5 -0.0137,0.005 -0.007,0.007 -0.006,0.009 0.005,0.005 0.007,-0.002 0.0111,-0.007 0.01,-0.01 z m -0.0574,-10e-4 c 0.0139,-0.009 10e-4,-0.009 -0.0191,0 -0.01,0.005 -0.0111,0.006 -0.004,0.007 0.006,2.2e-4 0.0166,-0.004 0.0229,-0.007 z m 0.0801,-0.0317 c 0.0168,-0.007 0.0219,-0.0124 0.0111,-0.009 -0.01,0.002 -0.0328,0.0111 -0.0495,0.0191 -0.0168,0.007 -0.0219,0.0124 -0.0111,0.009 0.01,-0.002 0.0328,-0.0111 0.0495,-0.0191 z m 0.0271,0.0124 c 0.0124,-0.006 0.0225,-0.0134 0.0225,-0.0155 0,-0.004 -0.0449,0.0172 -0.0527,0.0243 -0.007,0.007 0.01,10e-4 0.0302,-0.009 z m -1.6571,-0.0126 c -0.002,-0.006 -0.005,-0.005 -0.005,0.005 -3.3e-4,0.009 10e-4,0.0125 0.004,0.01 0.002,-0.002 0.002,-0.009 4.3e-4,-0.0146 z m 0.0166,-0.052 c 0,-0.007 -0.002,-0.006 -0.006,0.004 -0.004,0.009 -0.006,0.0204 -0.006,0.0266 0,0.007 0.002,0.006 0.006,-0.004 0.004,-0.009 0.006,-0.0204 0.006,-0.0267 z m 1.67064,0.0306 c 0.006,-0.004 0.007,-0.007 0.004,-0.007 -0.005,0 -0.0127,0.004 -0.0191,0.007 -0.006,0.004 -0.007,0.007 -0.004,0.007 0.004,0 0.0127,-0.004 0.0191,-0.007 z m 0.11893,-0.0512 c -0.005,-0.005 -0.0649,0.0235 -0.0615,0.0288 0.002,0.002 0.0171,-0.001 0.0335,-0.01 0.0165,-0.009 0.0291,-0.0173 0.028,-0.0183 z m -1.78333,-0.0111 c -0.002,-0.006 -0.005,-0.005 -0.005,0.005 -3.4e-4,0.007 10e-4,0.0125 0.004,0.01 0.002,-0.002 0.002,-0.009 4.3e-4,-0.0146 z m 0.007,-0.0304 c -0.002,-0.006 -0.005,-0.005 -0.005,0.005 -3.3e-4,0.007 0.001,0.0125 0.004,0.01 0.002,-0.002 0.002,-0.009 4.5e-4,-0.0146 z m 0.007,-0.0306 c -0.002,-0.006 -0.005,-0.005 -0.005,0.005 -3.3e-4,0.009 0.001,0.0125 0.004,0.01 0.002,-0.002 0.002,-0.009 4.5e-4,-0.0146 z m 0.007,-0.0306 c -0.002,-0.006 -0.005,-0.005 -0.005,0.005 -3.3e-4,0.007 0.001,0.0125 0.004,0.01 0.002,-0.002 0.002,-0.009 4.3e-4,-0.0146 z m 0.007,-0.0304 c -0.002,-0.006 -0.005,-0.005 -0.005,0.005 -3.4e-4,0.007 0.001,0.0125 0.004,0.01 0.002,-0.002 0.002,-0.009 4.5e-4,-0.0146 z m 0.007,-0.0306 c -0.002,-0.006 -0.005,-0.005 -0.005,0.005 -3.2e-4,0.007 0.001,0.0125 0.004,0.01 0.002,-0.002 0.002,-0.009 4.4e-4,-0.0146 z m 0.052,-0.20841 c 0.0355,-0.15575 0.0434,-0.20168 0.0321,-0.18596 -0.002,0.004 -0.0746,0.33706 -0.0788,0.36529 -0.007,0.0486 0.009,-0.0124 0.0468,-0.17933 z m 0.0855,0.11275 c -0.001,-0.0111 -0.002,-0.004 -0.002,0.0171 -6e-5,0.021 10e-4,0.0305 0.002,0.021 0.001,-0.01 0.001,-0.0265 1.1e-4,-0.0381 z m 0.007,-0.0762 c -0.001,-0.0111 -0.002,-0.004 -0.002,0.0171 -6e-5,0.021 0.001,0.0305 0.002,0.021 0.001,-0.01 0.001,-0.0265 1e-4,-0.0381 z m 0.007,-0.0839 c -0.001,-0.0111 -0.002,-0.004 -0.002,0.0171 -6e-5,0.0209 0.001,0.0305 0.002,0.021 0.001,-0.01 0.001,-0.0265 1.2e-4,-0.0381 z m 0.0155,-0.14685 c -2.7e-4,-0.0312 -8.7e-4,-0.0301 -0.006,0.0111 -0.002,0.0251 -0.005,0.0611 -0.005,0.0801 2.7e-4,0.0312 8.7e-4,0.0301 0.006,-0.0111 0.002,-0.0251 0.005,-0.0611 0.005,-0.0801 z m -0.0683,-0.0392 c -0.001,-0.006 -0.005,-0.002 -0.007,0.007 -0.004,0.0126 -0.002,0.0156 0.004,0.01 0.005,-0.005 0.006,-0.0125 0.005,-0.0181 z m 0.0757,-0.0581 c -0.001,-0.0111 -0.004,-0.002 -0.004,0.021 0,0.023 0.001,0.0325 0.004,0.0209 0.001,-0.0111 0.001,-0.0303 0,-0.042 z m -0.0516,-0.0351 c 0.01,-0.039 0.014,-0.0704 0.01,-0.0743 -0.004,-0.004 -0.0134,0.0274 -0.0224,0.0736 -0.0186,0.0955 -0.0111,0.0959 0.0124,4.4e-4 z m 0.0718,-0.12871 c 0.005,-0.0535 0.007,-0.0971 0.005,-0.0971 -0.005,0 -0.0124,0.0692 -0.0179,0.17533 -0.005,0.0816 10e-4,0.0481 0.0136,-0.0781 z m -0.0296,-0.0558 c 0.007,-0.0359 0.0188,-0.0704 0.025,-0.0766 0.0126,-0.0126 0.0124,-0.0144 -0.01,-0.021 -0.0145,-0.005 -0.0167,0.001 -0.0309,0.0791 -0.0111,0.0594 -0.0127,0.0839 -0.006,0.0839 0.005,0 0.0149,-0.0291 0.0225,-0.0653 z m 3.35323,-0.0816 c -0.004,-0.006 -0.0385,0.0124 -0.0694,0.0381 -0.0161,0.0135 -0.01,0.0124 0.0261,-0.007 0.0259,-0.0137 0.0453,-0.0276 0.0433,-0.0308 z m -3.30458,-0.077 -8.7e-4,-0.0468 -0.005,0.0427 c -0.002,0.0235 -0.007,0.0466 -0.0111,0.0514 -0.004,0.005 -8.9e-4,0.007 0.006,0.004 0.009,-0.004 0.0111,-0.0155 0.0111,-0.0514 z m 0.47683,-0.18025 c 0.0111,-0.12363 0.0233,-0.24205 0.0259,-0.26301 l 0.005,-0.0381 0.005,0.0419 c 0.002,0.023 0.006,0.0917 0.007,0.15248 l 0.001,0.11052 0.006,-0.0762 c 0.004,-0.042 0.004,-0.11052 0.001,-0.15247 -0.002,-0.042 -0.005,-0.0803 -0.004,-0.0851 8.9e-4,-0.005 -0.001,-0.0111 -0.006,-0.0137 -0.005,-0.002 -0.009,-0.0244 -0.009,-0.0483 -4.4e-4,-0.0239 -0.002,-0.0382 -0.004,-0.0319 -0.002,0.01 -0.0639,0.62283 -0.0639,0.638 0,0.002 0.002,0.002 0.006,-0.001 0.004,-0.004 0.0157,-0.10842 0.0274,-0.23214 z m 3.01768,0.16228 c 0.0577,-0.0313 0.10482,-0.0585 0.10482,-0.0605 0,-0.001 -0.004,-0.001 -0.007,10e-4 -0.004,0.002 -0.007,2.2e-4 -0.009,-0.005 -4.5e-4,-0.007 -0.001,-0.007 -0.005,-4.5e-4 -0.006,0.0163 -0.0178,0.01 -0.0178,-0.01 0,-0.0166 0.006,-0.0222 0.0234,-0.0204 0.002,2.5e-4 0.0573,-0.0533 0.12203,-0.11906 0.11275,-0.1146 0.10953,-0.11411 -0.0158,0.002 -0.10334,0.096 -0.14742,0.13243 -0.24007,0.19844 -0.0504,0.0359 -0.0927,0.0704 -0.0941,0.0768 -0.002,0.0136 -0.0132,0.0183 0.13791,-0.0636 z m -3.4759,-0.1699 0.005,-0.0648 -0.0156,0.0493 c -0.01,0.0317 -0.0128,0.0502 -0.007,0.052 0.005,10e-4 0.007,0.0219 0.005,0.0536 -0.002,0.0469 -0.002,0.0479 0.002,0.0129 0.004,-0.021 0.009,-0.0673 0.0111,-0.10297 z m 3.61497,0.0839 c 0.002,-0.005 -3.9e-4,-0.006 -0.007,-0.002 -0.0132,0.005 -0.0156,0.0111 -0.005,0.0111 0.004,0 0.009,-0.004 0.0124,-0.007 z m 0.0751,-0.0302 c 0.0145,-0.0145 0.001,-0.0144 -0.0255,2.3e-4 -0.0264,0.0143 -0.0265,0.0145 -0.005,0.0111 0.0124,-10e-4 0.0257,-0.007 0.03,-0.0111 z m 0.2375,-0.1281 c 0.0964,-0.0522 0.17914,-0.0989 0.1838,-0.10371 0.005,-0.005 0.021,-0.13055 0.0364,-0.27941 0.0269,-0.26017 0.0314,-0.32237 0.0222,-0.29731 -0.002,0.006 -0.0226,0.0522 -0.0452,0.10223 -0.0225,0.0499 -0.0397,0.0919 -0.0382,0.0936 0.001,0.001 0.0137,-0.0179 0.0272,-0.0432 0.0135,-0.0252 0.027,-0.0459 0.0299,-0.0459 0.006,0 -0.009,0.23588 -0.0219,0.34307 -0.005,0.0399 -0.0129,0.0798 -0.0177,0.089 -0.0178,0.0338 -0.12959,0.10681 -0.30793,0.20128 -0.0429,0.0228 -0.0781,0.0441 -0.0781,0.0474 -7e-5,0.007 -0.0145,0.0143 0.2096,-0.10706 z m -3.38847,-0.70508 c 0.004,-0.007 0.007,-0.0519 0.006,-0.0991 -4.3e-4,-0.0473 -0.002,-0.079 -0.004,-0.0707 -0.005,0.0295 -0.0485,0.50076 -0.0476,0.5209 4.3e-4,0.0111 0.009,-0.0603 0.0193,-0.15878 0.01,-0.0985 0.0218,-0.18511 0.0257,-0.1924 z"
       id="path1113"
       inkscape:connector-curvature="0" />
  </g>
</svg>
